{"title":"Mold! (2012) DVDRip - RadioResearch","uid":8502821,"size":787645116,"categoryP":"video","categoryS":"movies","magnet":"?xt=urn:btih:5c6eab8894113c7c3c1f7a04035ebf1c26f31073&amp;dn=Mold%21+%282012%29+DVDRip+-+RadioResearch&amp;tr=udp%3A%2F%2Ftracker.openbittorrent.com%3A80&amp;tr=udp%3A%2F%2Fopen.demonii.com%3A1337&amp;tr=udp%3A%2F%2Ftracker.coppersurfer.tk%3A6969&amp;tr=udp%3A%2F%2Fexodus.desync.com%3A6969","seeders":1,"leechers":0,"uploader":"RadioResearch","files":3,"time":1369343564,"description":"*******************************************************************************\n                       Mold! (2012) DVDRip RadioResearch\n*******************************************************************************\n\n-------------------------------------------------------------------------------\n                              General Information\n-------------------------------------------------------------------------------\nType.................: Movie\n\n\n\nVideo Format.........: AVI\nVideo Bitrate........: 1248\nResolution...........: 720 x 404\nColor................: 8 bit\nFPS..................: 23.976\nSource...............: DVD 16x9\nOriginal Format......: NTSC\nGenre................: Horror / Sci-Fi\nIMDb Rating..........: 6.2\nMovie Information....: http://www.imdb.com/title/tt1367236/\n\n-------------------------------------------------------------------------------\n                               Post Information\n-------------------------------------------------------------------------------\nPosted by............: RadioResearch\nPosted on............: 5/23/2013\n\n-------------------------------------------------------------------------------\n                                 Release Notes\n-------------------------------------------------------------------------------\nSEEDBOX SUPPORTED!!\n\nSet in 1984, when the war on drugs was at its height, the story concerns a \nstrain of mold developed by the government to wipe out Colombian coca fields. \nUnfortunately, during a demonstration, the mold gets out of control and proves \nto be deadly to more than just vegetation.\n\nEnjoy!\nRadioResearch\n\nGeneral\nComplete name                            : G:Mold! (2012) DVDRip - \nRadioResearchMOLD.{RadioResearch}.avi\nFormat                                   : AVI\nFormat/Info                              : Audio Video Interleave\nFile size                                : 751 MiB\nDuration                                 : 1h 24mn\nOverall bit rate                         : 1 248 Kbps\nMovie name                               : MOLD.Title1.DVDRip\nWriting application                      : Lavf53.32.100\nOriginal source form/Name                : MOLD\n\nVideo\nID                                       : 0\nFormat                                   : MPEG-4 Visual\nFormat profile                           : Advanced Simple@L5\nFormat settings, BVOP                    : 2\nFormat settings, QPel                    : No\nFormat settings, GMC                     : No warppoints\nFormat settings, Matrix                  : Default (H.263)\nMuxing mode                              : Packed bitstream\nCodec ID                                 : XVID\nCodec ID/Hint                            : XviD\nDuration                                 : 1h 24mn\nBit rate                                 : 1 045 Kbps\nWidth                                    : 720 pixels\nHeight                                   : 404 pixels\nDisplay aspect ratio                     : 16:9\nFrame rate                               : 23.976 fps\nColor space                              : YUV\nChroma subsampling                       : 4:2:0\nBit depth                                : 8 bits\nScan type                                : Progressive\nCompression mode                         : Lossy\nBits/(Pixel*Frame)                       : 0.150\nStream size                              : 629 MiB (84%)\nWriting library                          : XviD 64\n\nAudio\nID                                       : 1\nFormat                                   : AC-3\nFormat/Info                              : Audio Coding 3\nMode extension                           : CM (complete main)\nFormat settings, Endianness              : Big\nCodec ID                                 : 2000\nDuration                                 : 1h 24mn\nBit rate mode                            : Constant\nBit rate                                 : 192 Kbps\nChannel(s)                               : 2 channels\nChannel positions                        : Front: L R\nSampling rate                            : 48.0 KHz\nBit depth                                : 16 bits\nCompression mode                         : Lossy\nStream size                              : 116 MiB (15%)\nAlignment                                : Aligned on interleaves\nInterleave, duration                     : 32 ms (0.77 video frame)\n\nAVI FILE MD5 HAS  bea84d2a57e894ac0fd18fd4111ae1ec\n^^^^^^^^^^^^^^^^^^^^^^^^^^^^^^^^^^^^^^^^^^^^^^^^^^\nYou *know* why!\n\n\n\n-------------------------------------------------------------------------------\nGenerated with Cool NFO Creator - http://fly.to/coolbeans\n-------------------------------------------------------------------------------\n","torrent":{"xt":"urn:btih:5c6eab8894113c7c3c1f7a04035ebf1c26f31073","amp;dn":"Mold%21+%282012%29+DVDRip+-+RadioResearch","amp;tr":["udp%3A%2F%2Ftracker.openbittorrent.com%3A80","udp%3A%2F%2Fopen.demonii.com%3A1337","udp%3A%2F%2Ftracker.coppersurfer.tk%3A6969","udp%3A%2F%2Fexodus.desync.com%3A6969"],"infoHash":"5c6eab8894113c7c3c1f7a04035ebf1c26f31073","infoHashBuffer":{"type":"Buffer","data":[92,110,171,136,148,17,60,124,60,31,122,4,3,94,191,28,38,243,16,115]},"announce":[],"urlList":[]}}